<svg width="77" height="66" viewBox="0 0 77 66" fill="none" xmlns="http://www.w3.org/2000/svg">
<path d="M6.69133 7.87309C6.98176 7.87309 7.26777 7.74138 7.47269 7.51089C7.67909 7.28205 7.79703 6.96266 7.79703 6.63833C7.79703 6.31399 7.67909 5.9946 7.47269 5.76576C7.26777 5.53527 6.98323 5.40356 6.69133 5.40356C6.39943 5.40356 6.11489 5.53527 5.90997 5.76576C5.70357 5.9946 5.58563 6.31399 5.58563 6.63833C5.58563 6.96266 5.70357 7.28205 5.90997 7.51089C6.11489 7.74138 6.4009 7.87309 6.69133 7.87309Z" fill="#FED233"/>
<path d="M10.2297 7.87309C10.5216 7.87309 10.8062 7.74138 11.0111 7.51089C11.2175 7.28205 11.3354 6.96266 11.3354 6.63833C11.3354 6.31399 11.2175 5.9946 11.0111 5.76576C10.8062 5.53527 10.5202 5.40356 10.2297 5.40356C9.93929 5.40356 9.65328 5.53527 9.44836 5.76576C9.24196 5.9946 9.12402 6.31399 9.12402 6.63833C9.12402 6.96266 9.24196 7.28205 9.44836 7.51089C9.65328 7.74138 9.93929 7.87309 10.2297 7.87309Z" fill="#FED233"/>
<path d="M13.768 7.87309C14.0584 7.87309 14.3444 7.74138 14.5493 7.51089C14.7557 7.28205 14.8737 6.96266 14.8737 6.63833C14.8737 6.31399 14.7557 5.9946 14.5493 5.76576C14.3444 5.53527 14.0584 5.40356 13.768 5.40356C13.4776 5.40356 13.1916 5.53527 12.9866 5.76576C12.7802 5.9946 12.6623 6.31399 12.6623 6.63833C12.6623 6.96266 12.7802 7.28205 12.9866 7.51089C13.1916 7.74138 13.4776 7.87309 13.768 7.87309Z" fill="#FED233"/>
<path d="M18.4856 7.87309H63.3032C63.9138 7.87309 64.4089 7.32024 64.4089 6.63833C64.4089 5.95641 63.9138 5.40356 63.3032 5.40356H18.4856C17.8749 5.40356 17.3799 5.95641 17.3799 6.63833C17.3799 7.32024 17.8749 7.87309 18.4856 7.87309Z" fill="#FED233"/>
<path d="M68.0209 7.87309H70.3797C70.9903 7.87309 71.4854 7.32024 71.4854 6.63833C71.4854 5.95641 70.9903 5.40356 70.3797 5.40356H68.0209C67.4102 5.40356 66.9152 5.95641 66.9152 6.63833C66.9152 7.32024 67.4102 7.87309 68.0209 7.87309Z" fill="#FED233"/>
<path d="M65.6619 18.574H44.4325C42.5222 18.574 40.968 20.3096 40.968 22.4429V22.5252H39.7149C37.8045 22.5252 36.2504 24.2608 36.2504 26.3941V37.0131H33.7441V32.9795C33.7441 30.8462 32.19 29.1106 30.2796 29.1106H11.409C9.49869 29.1106 7.94452 30.8462 7.94452 32.9795V43.5161C7.94452 45.6495 9.49869 47.3851 11.409 47.3851H30.2796C32.19 47.3851 33.7441 45.6495 33.7441 43.5161V39.4826H36.2504V50.1015C36.2504 52.2349 37.8045 53.9704 39.7149 53.9704H40.968V54.0528C40.968 56.1861 42.5222 57.9217 44.4325 57.9217H65.6619C67.5723 57.9217 69.1264 56.1861 69.1264 54.0528V51.4186C69.1264 49.2853 67.5723 47.5497 65.6619 47.5497H44.4325C42.5222 47.5497 40.968 49.2853 40.968 51.4186V51.5009H39.7149C39.0239 51.5009 38.4618 50.8732 38.4618 50.1015V39.4826H40.968V39.5649C40.968 41.6982 42.5222 43.4338 44.4325 43.4338H65.6619C67.5723 43.4338 69.1264 41.6982 69.1264 39.5649V36.9307C69.1264 34.7974 67.5723 33.0618 65.6619 33.0618H44.4325C42.5222 33.0618 40.968 34.7974 40.968 36.9307V37.0131H38.4618V26.3941C38.4618 25.6225 39.0239 24.9947 39.7149 24.9947H40.968V25.077C40.968 27.2104 42.5222 28.946 44.4325 28.946H65.6619C67.5723 28.946 69.1264 27.2104 69.1264 25.077V22.4429C69.1264 20.3096 67.5723 18.574 65.6619 18.574ZM31.5327 43.5161C31.5327 44.2878 30.9706 44.9155 30.2796 44.9155H11.409C10.7181 44.9155 10.1559 44.2878 10.1559 43.5161V32.9795C10.1559 32.2079 10.7181 31.5801 11.409 31.5801H30.2796C30.9706 31.5801 31.5327 32.2079 31.5327 32.9795V43.5161ZM43.1794 51.4186C43.1794 50.647 43.7415 50.0192 44.4325 50.0192H65.6619C66.3529 50.0192 66.915 50.647 66.915 51.4186V54.0528C66.915 54.8244 66.3529 55.4522 65.6619 55.4522H44.4325C43.7415 55.4522 43.1794 54.8244 43.1794 54.0528V51.4186ZM43.1794 36.9307C43.1794 36.1591 43.7415 35.5314 44.4325 35.5314H65.6619C66.3529 35.5314 66.915 36.1591 66.915 36.9307V39.5649C66.915 40.3365 66.3529 40.9643 65.6619 40.9643H44.4325C43.7415 40.9643 43.1794 40.3365 43.1794 39.5649V36.9307ZM66.915 25.077C66.915 25.8487 66.3529 26.4764 65.6619 26.4764H44.4325C43.7415 26.4764 43.1794 25.8487 43.1794 25.077V22.4429C43.1794 21.6712 43.7415 21.0435 44.4325 21.0435H65.6619C66.3529 21.0435 66.915 21.6712 66.915 22.4429V25.077Z" fill="#FED233"/>
<path d="M70.3795 0.13501H6.69132C3.48038 0.13501 0.867981 3.05234 0.867981 6.63808V59.3212C0.867981 62.9069 3.48038 65.8243 6.69132 65.8243H70.3795C73.5904 65.8243 76.2028 62.9069 76.2028 59.3212V6.63808C76.2028 3.05234 73.5904 0.13501 70.3795 0.13501ZM6.69132 2.60453H70.3795C72.3711 2.60453 73.9914 4.41403 73.9914 6.63808V10.6716H3.07938V6.63808C3.07938 4.41403 4.69974 2.60453 6.69132 2.60453ZM70.3795 63.3547H6.69132C4.69974 63.3547 3.07938 61.5452 3.07938 59.3212V13.1412H73.9914V59.3212C73.9914 61.5452 72.3711 63.3547 70.3795 63.3547Z" fill="#FED233"/>
</svg>
