<svg width="75" height="82" viewBox="0 0 75 82" fill="none" xmlns="http://www.w3.org/2000/svg">
<path d="M70.7038 0.13501H3.88417C1.97534 0.13501 0.427979 1.88945 0.427979 4.05372V61.5282C0.427979 62.2496 0.943814 62.8344 1.58004 62.8344H27.824L25.9807 73.2843H23.4692C22.833 73.2843 22.3172 73.8692 22.3172 74.5906V78.5093H20.013V81.1218H54.5749V78.5093H52.2708V74.5906C52.2708 73.8692 51.7549 73.2843 51.1187 73.2843H48.6053L46.762 62.8344H73.0079C73.6441 62.8344 74.16 62.2496 74.16 61.5282V4.05372C74.16 1.88945 72.6126 0.13501 70.7038 0.13501ZM47.6625 75.8968H49.9667V78.5093H24.6213V75.8968H26.9254H47.6625ZM28.3309 73.2843L30.1725 62.8344H44.4137L46.257 73.2843H28.3309ZM71.8558 60.222H2.7321V48.4658H18.861H25.7733H32.6857H39.5981H46.5105H55.727H71.8558V60.222ZM55.727 11.8912H46.5105C45.8742 11.8912 45.3584 12.476 45.3584 13.1974V24.9535H47.6625V14.5036H54.5749V19.7286H49.9667V22.3411H54.5749V28.8722H49.9667V31.4847H54.5749V38.0159H49.9667V40.6284H54.5749V45.8533H47.6625V35.4034H45.3584V45.8533H40.7502V39.3221C40.7502 33.9914 46.4598 32.8197 46.6994 32.7727C46.8414 32.7457 46.9776 32.6889 47.1012 32.605C47.6471 32.2343 47.8247 31.4321 47.4978 30.8133L37.1292 11.2197C37.0457 11.0816 36.9404 10.9623 36.8186 10.8676C36.2734 10.4438 35.5283 10.6014 35.1546 11.2197L24.786 30.8133C24.7124 30.9524 24.6623 31.1059 24.6384 31.2659C24.5317 31.9772 24.9537 32.6517 25.581 32.7727C25.824 32.8197 31.5337 33.9914 31.5337 39.3221V45.8533H26.9254V35.4034H24.6213V45.8533H23.4692V22.3411H24.6213V24.9535H26.9254V21.0348C26.9257 20.8578 26.894 20.6826 26.8321 20.5202L23.3759 11.3765C23.2594 11.0685 23.043 10.8231 22.7714 10.691C22.1867 10.4066 21.5093 10.7136 21.2584 11.3765L17.8022 20.5202C17.7403 20.6826 17.7086 20.8578 17.7089 21.0348V45.8533H8.49241V9.27868H66.0955V45.8533H56.879V13.1974C56.879 12.476 56.3632 11.8912 55.727 11.8912ZM33.8378 41.9346V40.6284H38.446V41.9346H33.8378ZM38.446 44.5471V45.8533H33.8378V44.5471H38.446ZM33.7537 38.0159C33.2018 33.8621 30.0648 31.6153 27.5556 30.6553L34.9898 16.6075V27.566H37.294V16.6075L44.7282 30.6553C42.2167 31.6088 39.082 33.8621 38.5301 38.0159H33.7537ZM20.6056 19.7286L22.3172 15.2012L24.0287 19.7286H20.6056ZM21.1651 22.3411V45.8533H20.013V22.3411H21.1651ZM71.8558 45.8533H68.3997V7.97244C68.3997 7.25107 67.8838 6.6662 67.2476 6.6662H7.34035C6.70413 6.6662 6.18829 7.25107 6.18829 7.97244V45.8533H2.7321V4.05372C2.7321 3.33235 3.24794 2.74749 3.88417 2.74749H70.7038C71.34 2.74749 71.8558 3.33235 71.8558 4.05372V45.8533Z" fill="#FED233"/>
<path d="M37.2941 49.7725C35.3853 49.7725 33.8379 51.5269 33.8379 53.6912C33.8379 55.8554 35.3853 57.6099 37.2941 57.6099C39.2029 57.6099 40.7503 55.8554 40.7503 53.6912C40.7503 51.5269 39.2029 49.7725 37.2941 49.7725ZM37.2941 54.9974C36.6579 54.9974 36.142 54.4125 36.142 53.6912C36.142 52.9698 36.6579 52.3849 37.2941 52.3849C37.9303 52.3849 38.4461 52.9698 38.4461 53.6912C38.4461 54.4125 37.9303 54.9974 37.2941 54.9974Z" fill="#FED233"/>
</svg>
