<svg width="70" height="78" viewBox="0 0 70 78" fill="none" xmlns="http://www.w3.org/2000/svg">
<path d="M12.4351 5.45386H10.1377V8.03344H12.4351V5.45386Z" fill="#FED233"/>
<path d="M17.0301 5.45386H14.7327V8.03344H17.0301V5.45386Z" fill="#FED233"/>
<path d="M7.84029 5.45386H5.54285V8.03344H7.84029V5.45386Z" fill="#FED233"/>
<path d="M65.2766 0.294922H5.54301C3.00534 0.294922 0.94812 2.60477 0.94812 5.45408V72.5231C0.94812 75.3724 3.00534 77.6823 5.54301 77.6823H65.2766C67.8143 77.6823 69.8715 75.3724 69.8715 72.5231V5.45408C69.8715 2.60477 67.8143 0.294922 65.2766 0.294922ZM67.5741 72.5231C67.5741 73.9478 66.5455 75.1027 65.2766 75.1027H5.54301C4.2741 75.1027 3.24557 73.9478 3.24557 72.5231V13.1928H67.5741V72.5231ZM67.5741 10.6132H3.24557V5.45408C3.24557 4.02934 4.2741 2.8745 5.54301 2.8745H65.2766C66.5455 2.8745 67.5741 4.02934 67.5741 5.45408V10.6132Z" fill="#FED233"/>
<path d="M58.3841 38.9884H54.3831C53.9126 36.7782 53.1351 34.6651 52.0788 32.7265L54.9047 29.5549C55.3531 29.0512 55.3531 28.2348 54.9047 27.7311L50.0306 22.2586C49.5749 21.7747 48.8621 21.7747 48.4063 22.2586L45.5816 25.4315C43.8551 24.2455 41.9731 23.3725 40.0046 22.8441V18.3518C40.0046 17.6395 39.4902 17.062 38.8558 17.062H31.9635C31.3291 17.062 30.8148 17.6395 30.8148 18.3518V22.8441C28.8463 23.3725 26.9643 24.2455 25.2377 25.4315L22.413 22.2586C21.9645 21.7551 21.2373 21.7551 20.7887 22.2586L15.9147 27.7311C15.4663 28.2348 15.4663 29.0512 15.9147 29.5549L18.7406 32.7265C17.6843 34.6651 16.9068 36.7782 16.4362 38.9884H12.4352C11.8008 38.9884 11.2865 39.5659 11.2865 40.2782V48.0169C11.2865 48.7292 11.8008 49.3067 12.4352 49.3067H16.4362C16.9068 51.517 17.6843 53.6301 18.7406 55.5687L15.9147 58.7403C15.4663 59.2439 15.4663 60.0604 15.9147 60.564L20.7887 66.0366C21.2445 66.5204 21.9573 66.5204 22.413 66.0366L25.2377 62.8637C26.9643 64.0497 28.8463 64.9227 30.8148 65.451V69.9434C30.8148 70.6557 31.3291 71.2332 31.9635 71.2332H38.8558C39.4902 71.2332 40.0046 70.6557 40.0046 69.9434V65.451C41.9731 64.9227 43.8551 64.0497 45.5816 62.8637L48.4063 66.0366C48.8549 66.5401 49.5821 66.5401 50.0306 66.0366L54.9047 60.564C55.3531 60.0604 55.3531 59.2439 54.9047 58.7403L52.0788 55.5687C53.1351 53.6301 53.9126 51.517 54.3831 49.3067H58.3841C59.0185 49.3067 59.5329 48.7292 59.5329 48.0169V40.2782C59.5329 39.5659 59.0185 38.9884 58.3841 38.9884ZM57.2354 46.7272H53.455C52.9036 46.7273 52.43 47.1675 52.3269 47.7758C51.8928 50.3707 50.9855 52.8369 49.6619 55.0192C49.3517 55.5309 49.4092 56.2179 49.7986 56.656L52.4682 59.6521L49.2185 63.3009L46.5523 60.3035C46.1622 59.8662 45.5503 59.8018 45.0946 60.15C43.1509 61.6362 40.9544 62.6549 38.6433 63.1423C38.1016 63.2581 37.7096 63.7898 37.7094 64.4089V68.6536H33.1122V64.4089C33.1121 63.7898 32.7201 63.2581 32.1783 63.1423C29.8672 62.6549 27.6707 61.6362 25.7271 60.15C25.2713 59.8018 24.6595 59.8662 24.2694 60.3035L21.6009 63.3009L18.3511 59.6521L21.0208 56.6585C21.4102 56.2205 21.4676 55.5335 21.1575 55.0218C19.8339 52.8395 18.9265 50.3732 18.4924 47.7783C18.3903 47.1691 17.9165 46.7276 17.3644 46.7272H13.5839V41.568H17.3644C17.9158 41.5678 18.3893 41.1277 18.4924 40.5194C18.9265 37.9245 19.8339 35.4583 21.1575 33.2759C21.4676 32.7642 21.4102 32.0773 21.0208 31.6392L18.3511 28.643L21.6009 24.9942L24.2671 27.9917C24.6572 28.4289 25.269 28.4934 25.7248 28.1452C27.6684 26.659 29.8649 25.6402 32.176 25.1529C32.7187 25.0382 33.1118 24.5062 33.1122 23.8863V19.6416H37.7071V23.8863C37.7073 24.5054 38.0993 25.0371 38.641 25.1529C40.9521 25.6402 43.1486 26.659 45.0923 28.1452C45.548 28.4934 46.1599 28.4289 46.55 27.9917L49.2185 24.9942L52.4682 28.643L49.7986 31.6366C49.4092 32.0747 49.3517 32.7616 49.6619 33.2734C50.9855 35.4557 51.8928 37.9219 52.3269 40.5168C52.43 41.1251 52.9036 41.5653 53.455 41.5654H57.2354V46.7272Z" fill="#FED233"/>
<path d="M35.4097 27.3806C27.1622 27.3806 20.4763 34.8875 20.4763 44.1479C20.4763 53.4082 27.1622 60.9151 35.4097 60.9151C43.6573 60.9151 50.3431 53.4082 50.3431 44.1479C50.3336 34.892 43.6532 27.3913 35.4097 27.3806ZM35.4097 58.3356C28.4311 58.3356 22.7738 51.9835 22.7738 44.1479C22.7738 36.3122 28.4311 29.9602 35.4097 29.9602C42.3884 29.9602 48.0457 36.3122 48.0457 44.1479C48.0375 51.9796 42.3849 58.3264 35.4097 58.3356Z" fill="#FED233"/>
<path d="M31.504 41.3102L30.1255 39.2466L25.5306 43.116C25.023 43.5434 24.9202 44.3517 25.3009 44.9217C25.3662 45.0194 25.4436 45.1063 25.5306 45.1796L30.1255 49.049L31.504 46.9853L28.1348 44.1478L31.504 41.3102Z" fill="#FED233"/>
<path d="M45.5187 43.3739C45.4533 43.2762 45.3759 43.1893 45.2889 43.116L40.694 39.2466L39.3156 41.3102L42.6848 44.1478L39.3156 46.9853L40.694 49.049L45.2889 45.1796C45.7965 44.7522 45.8993 43.9438 45.5187 43.3739Z" fill="#FED233"/>
<path d="M36.6645 37.2351L32.0446 50.1233L34.1797 51.077L38.7996 38.1888L36.6645 37.2351Z" fill="#FED233"/>
</svg>
