<svg width="78" height="87" viewBox="0 0 78 87" fill="none" xmlns="http://www.w3.org/2000/svg">
<path d="M77.6429 65.3884V25.075C77.6388 21.1012 74.7767 17.8809 71.245 17.8762H57.1696V0.598999H54.6105V20.4937C53.8899 19.1379 53.031 17.8818 52.0513 16.7503V0.598999H49.4921V17.3478C49.4921 17.7396 49.634 18.1145 49.885 18.3859C52.9126 21.6289 54.6215 26.1305 54.6105 30.8341C54.6181 40.3759 47.7498 48.1183 39.2694 48.1269C30.7891 48.1355 23.9081 40.4074 23.9005 30.8654C23.8941 22.854 28.7832 15.8884 35.711 14.039C36.2883 13.8855 36.6961 13.3056 36.6963 12.6381V9.23759H34.1371V11.5326C30.7768 12.65 27.7834 14.8563 25.5307 17.8762H7.26589C3.73425 17.8809 0.87214 21.1012 0.867981 25.075V65.3884C0.87214 69.3622 3.73425 72.5826 7.26589 72.5872H28.228L25.6689 78.3463H2.14756C1.44091 78.3463 0.867981 78.991 0.867981 79.7861C0.867981 86.9849 7.6101 86.9849 9.82506 86.9849H68.6859C70.9008 86.9849 77.6429 86.9849 77.6429 79.7861C77.6429 78.991 77.07 78.3463 76.3634 78.3463H52.8421L50.2829 72.5872H71.245C74.7767 72.5826 77.6388 69.3622 77.6429 65.3884ZM35.3551 50.5142C36.6358 50.8335 37.9437 50.9935 39.2555 50.9908C49.1446 50.978 57.1584 41.9611 57.1696 30.8341V26.5148H69.9654V61.0691H8.54548V26.5148H21.7648C19.6278 37.3647 25.7124 48.1096 35.3551 50.5142ZM74.9289 81.2258C74.4824 82.9982 72.9379 84.1054 68.6859 84.1054H9.82506C5.57301 84.1054 4.02855 82.9982 3.58198 81.2258H74.9289ZM28.53 78.3463L31.0892 72.5872H47.4218L49.9809 78.3463H28.53ZM7.26589 69.7077C5.14579 69.7077 3.42715 67.7739 3.42715 65.3884V25.075C3.42715 22.6895 5.14579 20.7557 7.26589 20.7557H23.7418C23.2692 21.6777 22.8627 22.6405 22.5262 23.6352H7.26589C6.55924 23.6352 5.98631 24.2799 5.98631 25.075V62.5089C5.98631 63.304 6.55924 63.9486 7.26589 63.9486H71.245C71.9517 63.9486 72.5246 63.304 72.5246 62.5089V25.075C72.5246 24.2799 71.9517 23.6352 71.245 23.6352H57.1696V20.7557H71.245C73.3651 20.7557 75.0838 22.6895 75.0838 25.075V65.3884C75.0838 67.7739 73.3651 69.7077 71.245 69.7077H7.26589Z" fill="#FED233"/>
<path d="M39.2555 23.6353C35.7239 23.6399 32.8618 26.8603 32.8576 30.8341C32.8576 34.8098 35.7221 38.0329 39.2555 38.0329C42.7889 38.0329 45.6534 34.8098 45.6534 30.8341C45.6534 26.8583 42.7889 23.6353 39.2555 23.6353ZM39.2555 35.1534C37.1354 35.1534 35.4168 33.2196 35.4168 30.8341C35.4168 28.4486 37.1354 26.5148 39.2555 26.5148C41.3756 26.5148 43.0943 28.4486 43.0943 30.8341C43.0943 33.2196 41.3756 35.1534 39.2555 35.1534Z" fill="#FED233"/>
<path d="M44.3739 0.598877V11.5195C43.5354 11.2422 42.6802 11.0343 41.8147 10.8975V7.7977H39.2556V12.1904C39.2536 12.9447 39.7695 13.5728 40.4379 13.6302C42.0618 13.7637 43.6564 14.189 45.1608 14.89C45.8131 15.1961 46.5623 14.8493 46.8344 14.1156C46.8999 13.9385 46.9335 13.7486 46.9331 13.5568V0.598877H44.3739Z" fill="#FED233"/>
<path d="M41.8147 0.598877H39.2556V4.91817H41.8147V0.598877Z" fill="#FED233"/>
<path d="M36.6963 3.47864H34.1371V6.35817H36.6963V3.47864Z" fill="#FED233"/>
<path d="M50.7718 26.5146H48.745C48.7232 26.4556 48.7028 26.3966 48.681 26.3375L50.1141 24.725C50.6137 24.1628 50.6137 23.2514 50.1141 22.6892L46.4942 18.6161C45.9865 18.076 45.1925 18.076 44.6849 18.6161L43.2517 20.2286L43.0943 20.1566V17.876C43.0943 17.0809 42.5214 16.4363 41.8148 16.4363H36.6964C35.9898 16.4363 35.4169 17.0809 35.4169 17.876V20.1566L35.2595 20.2286L33.8263 18.6161C33.3267 18.054 32.5167 18.054 32.017 18.6161L28.3971 22.6892C27.8975 23.2514 27.8975 24.1628 28.3971 24.725L29.8302 26.3375C29.8084 26.3966 29.7867 26.4556 29.7662 26.5146H27.7394C27.0327 26.5146 26.4598 27.1593 26.4598 27.9544V33.7135C26.4598 34.5086 27.0327 35.1532 27.7394 35.1532H29.7662C29.788 35.2122 29.8084 35.2713 29.8302 35.3303L28.3971 36.9428C27.8975 37.5051 27.8975 38.4164 28.3971 38.9787L32.017 43.0518C32.5247 43.5919 33.3187 43.5919 33.8263 43.0518L35.2595 41.4392L35.4169 41.5112V43.7918C35.4169 44.5869 35.9898 45.2316 36.6964 45.2316H41.8148C42.5214 45.2316 43.0943 44.5869 43.0943 43.7918V41.5112L43.2517 41.4392L44.6849 43.0518C45.1845 43.6138 45.9945 43.6138 46.4942 43.0518L50.1141 38.9787C50.6137 38.4164 50.6137 37.5051 50.1141 36.9428L48.681 35.3303C48.7028 35.2713 48.7245 35.2122 48.745 35.1532H50.7718C51.4785 35.1532 52.0514 34.5086 52.0514 33.7135V27.9544C52.0514 27.1593 51.4785 26.5146 50.7718 26.5146ZM49.4923 32.2751H47.8365C47.2704 32.2755 46.7719 32.6941 46.6106 33.3046C46.4617 33.8731 46.2607 34.4227 46.0105 34.9445C45.7404 35.5049 45.8299 36.1985 46.2306 36.6491L47.3989 37.9636L45.5895 39.9966L44.4213 38.6821C44.0208 38.2313 43.4043 38.1305 42.9063 38.4344C42.4426 38.7159 41.9541 38.9421 41.4488 39.1097C40.9063 39.2911 40.5342 39.8521 40.5339 40.489V42.352H37.976V40.489C37.9757 39.8521 37.6037 39.2911 37.0611 39.1097C36.5558 38.9421 36.0674 38.7159 35.6037 38.4344C35.1056 38.1305 34.4892 38.2313 34.0886 38.6821L32.9204 39.9966L31.1123 37.9608L32.2806 36.6463C32.6813 36.1954 32.7708 35.502 32.5007 34.9416C32.2505 34.4198 32.0495 33.8702 31.9006 33.3017C31.7389 32.6918 31.2403 32.2739 30.6747 32.2737H29.0189V29.3942H30.6747C31.2408 29.3938 31.7393 28.9752 31.9006 28.3647C32.0495 27.7962 32.2505 27.2466 32.5007 26.7248C32.7708 26.1644 32.6813 25.4708 32.2806 25.0202L31.1123 23.7056L32.9217 21.6698L34.0899 22.9843C34.4906 23.4352 35.1069 23.5359 35.605 23.232C36.0686 22.9505 36.5571 22.7243 37.0624 22.5567C37.604 22.3748 37.9754 21.8147 37.976 21.1789V19.3158H40.5352V21.1789C40.5355 21.8158 40.9075 22.3767 41.4501 22.5582C41.9554 22.7257 42.4438 22.9519 42.9075 23.2334C43.4056 23.5374 44.022 23.4366 44.4226 22.9858L45.5908 21.6713L47.4001 23.7071L46.2319 25.0216C45.8312 25.4722 45.7416 26.1658 46.0118 26.7263C46.262 27.248 46.463 27.7976 46.6119 28.3662C46.7731 28.9766 47.2717 29.3952 47.8378 29.3956H49.4923V32.2751Z" fill="#FED233"/>
<path d="M19.687 41.9302L17.8777 39.8944L11.4797 47.0932C10.9802 47.6555 10.9802 48.5668 11.4797 49.1291L17.8777 56.3279L19.687 54.2921L14.1937 48.1111L19.687 41.9302Z" fill="#FED233"/>
<path d="M67.0315 47.0932L60.6336 39.8944L58.8243 41.9302L64.3175 48.1111L58.8243 54.2921L60.6336 56.3279L67.0315 49.1291C67.531 48.5668 67.531 47.6555 67.0315 47.0932Z" fill="#FED233"/>
</svg>
