<svg width="68" height="91" viewBox="0 0 68 91" fill="none" xmlns="http://www.w3.org/2000/svg">
<path d="M27.2523 7.18396H22.3175C21.669 7.18396 21.1433 7.7716 21.1433 8.49683C21.1433 9.22206 21.669 9.8097 22.3175 9.8097H27.2523C27.9008 9.8097 28.4265 9.22206 28.4265 8.49683C28.4265 7.7716 27.901 7.18396 27.2523 7.18396Z" fill="#FED233"/>
<path d="M28.0619 77.8058H21.5076C19.8816 77.8058 18.559 79.2846 18.559 81.1027V82.1006C18.559 83.9187 19.8819 85.3977 21.5076 85.3977H28.0619C29.6879 85.3977 31.0106 83.9185 31.0106 82.1006V81.1027C31.0106 79.2846 29.6878 77.8058 28.0619 77.8058ZM28.662 82.1006C28.662 82.4644 28.3872 82.7718 28.0619 82.7718H21.5076C21.1823 82.7718 20.9075 82.4644 20.9075 82.1006V81.1027C20.9075 80.7389 21.1823 80.4317 21.5076 80.4317H28.0619C28.3872 80.4317 28.662 80.7389 28.662 81.1027V82.1006Z" fill="#FED233"/>
<path d="M65.4586 44.5535H61.9018C61.6847 43.7831 61.4084 43.0365 61.075 42.3206L63.5897 39.5089C63.9041 39.1574 64.0772 38.69 64.0772 38.1929C64.0772 37.6959 63.9041 37.2285 63.5899 36.8774L60.6301 33.5679C59.9815 32.8434 58.9261 32.8437 58.2771 33.5683L55.7621 36.3803C55.1218 36.0076 54.4542 35.6986 53.765 35.456V31.479C53.765 30.4533 53.0186 29.6184 52.101 29.6184H48.6657V22.6751C48.6657 21.9499 48.14 21.3622 47.4915 21.3622C46.843 21.3622 46.2517 21.9499 46.2517 22.6751V30.967V35.456C45.5624 35.6988 44.8948 36.0076 44.2546 36.3804L43.5953 35.6431V16.0714C43.5953 14.7548 42.6373 13.683 41.459 13.683C40.3146 13.683 9.9236 13.683 8.11109 13.683C6.93329 13.683 5.97498 14.7543 5.97498 16.0714V73.286C5.97498 74.6027 6.93313 75.6743 8.11109 75.6743H41.459C42.6369 75.6743 43.5952 74.603 43.5952 73.286V61.8645L44.2544 61.1274C44.8948 61.5004 45.5623 61.8094 46.2515 62.052C46.2515 66.2719 46.2291 66.1984 46.3171 66.5409V66.5411V84.6066C46.3171 86.2121 45.149 87.5182 43.7131 87.5182H27.5248C26.8763 87.5182 26.3506 88.1058 26.3506 88.831C26.3506 89.5563 26.8763 90.1439 27.5248 90.1439H43.7129C46.4438 90.1439 48.6655 87.6598 48.6655 84.6064V67.8894H52.1008C53.0182 67.8894 53.7649 67.0545 53.7649 66.0286V62.0518C54.4541 61.809 55.1216 61.5002 55.762 61.1274L58.277 63.9394C58.9258 64.6646 59.9816 64.6646 60.6302 63.9394L63.5896 60.6306C63.9039 60.2791 64.0771 59.8119 64.0771 59.3147C64.0771 58.8176 63.9039 58.3504 63.5897 57.9991L61.0749 55.1872C61.4082 54.4713 61.6847 53.725 61.9017 52.9543H65.4584C66.3759 52.9543 67.1225 52.1197 67.1225 51.0937V46.4139C67.1227 45.3883 66.3762 44.5535 65.4586 44.5535ZM15.1931 16.3093H41.2464V22.009H15.1931V16.3093ZM8.32323 16.3093H12.8444V22.009H8.32323V16.3093ZM8.32323 73.0484V24.635C10.0586 24.635 40.0123 24.635 41.2463 24.635V33.1877C40.6321 32.8789 39.8826 33.0134 39.386 33.5683L36.4265 36.8772C35.7706 37.6109 35.7826 38.7891 36.4265 39.5087L38.9414 42.3206C38.8202 42.5807 38.7094 42.8461 38.6034 43.1141C38.4177 43.5834 38.2528 44.0628 38.1146 44.5533H34.5578C33.6404 44.5533 32.8938 45.3878 32.8938 46.4139V47.4408H13.0811C12.4326 47.4408 11.9069 48.0284 11.9069 48.7536C11.9069 49.4789 12.4326 50.0665 13.0811 50.0665H32.8938V51.0933C32.8938 52.119 33.6399 52.9539 34.5578 52.9539H38.1146C38.3159 53.6685 38.583 54.417 38.9414 55.1867L36.4265 57.9987C35.7778 58.7243 35.7778 59.9046 36.4265 60.63L39.386 63.939C39.8718 64.4818 40.6166 64.6354 41.2463 64.3197V73.0481H8.32323V73.0484ZM64.7743 50.3284H61.0069C60.4615 50.3284 59.9879 50.7483 59.8636 51.3421C59.6131 52.5387 59.1929 53.6738 58.6144 54.7155C58.3266 55.2336 58.3958 55.9051 58.7816 56.3366L61.4451 59.3147L59.4537 61.5415L56.79 58.5632C56.404 58.1323 55.8038 58.0545 55.34 58.3765C54.4082 59.0233 53.3931 59.4933 52.3233 59.7732C51.7921 59.912 51.4165 60.4415 51.4165 61.0516V65.2638H48.6001V61.0516C48.6001 60.4417 48.2245 59.912 47.6933 59.7732C46.6234 59.4933 45.6082 59.0234 44.6765 58.3765C44.2133 58.0547 43.6125 58.1321 43.2266 58.5634L40.563 61.5417L38.5714 59.3149L41.235 56.3368C41.6209 55.9053 41.69 55.2334 41.4022 54.7153C40.8234 53.6732 40.4024 52.5338 40.1532 51.3424C40.029 50.7485 39.5553 50.3286 39.0098 50.3286H35.2426V47.1796H39.0098C39.5553 47.1796 40.0289 46.7596 40.1532 46.1657C40.3935 45.0175 40.8142 43.8514 41.4022 42.7927C41.5101 42.5984 41.5679 42.3825 41.5776 42.1658C41.5937 41.8047 41.4761 41.4411 41.235 41.1717L39.4593 39.1861L38.5716 38.1934L40.563 35.9666L43.2266 38.9449C43.6122 39.3762 44.213 39.4538 44.6765 39.1319C45.6081 38.4851 46.623 38.0152 47.6933 37.7351C48.2245 37.5963 48.6001 37.0668 48.6001 36.4568V32.2445H51.4165V36.4564C51.4165 37.0663 51.7921 37.5958 52.3233 37.7348C53.3934 38.0147 54.4085 38.4845 55.3402 39.1315C55.8035 39.4531 56.4042 39.3757 56.79 38.9446L59.4537 35.9663L61.4453 38.1931L58.7817 41.1714C58.396 41.6027 58.3268 42.2742 58.6145 42.7925C59.193 43.8342 59.6134 44.9692 59.8637 46.1659C59.9879 46.7596 60.4616 47.1796 61.0071 47.1796H64.7743V50.3284Z" fill="#FED233"/>
<path d="M50.0083 41.7202C46.5394 41.7202 43.717 44.8757 43.717 48.7544C43.717 52.6332 46.5392 55.7886 50.0083 55.7886C53.4772 55.7886 56.2994 52.6332 56.2994 48.7544C56.2995 44.8757 53.4772 41.7202 50.0083 41.7202ZM50.0083 53.1627C47.8343 53.1627 46.0655 51.185 46.0655 48.7542C46.0655 46.3235 47.8341 44.3458 50.0083 44.3458C52.1823 44.3458 53.9508 46.3235 53.9508 48.7542C53.9508 51.185 52.1821 53.1627 50.0083 53.1627Z" fill="#FED233"/>
<path d="M34.0678 33.1738H13.0809C12.4325 33.1738 11.9067 33.7615 11.9067 34.4867C11.9067 35.2119 12.4325 35.7996 13.0809 35.7996H34.0678C34.7163 35.7996 35.242 35.2119 35.242 34.4867C35.2421 33.7615 34.7163 33.1738 34.0678 33.1738Z" fill="#FED233"/>
<path d="M34.0678 40.3077H13.0809C12.4325 40.3077 11.9067 40.8954 11.9067 41.6206C11.9067 42.3458 12.4325 42.9335 13.0809 42.9335H34.0678C34.7163 42.9335 35.242 42.3458 35.242 41.6206C35.2421 40.8954 34.7163 40.3077 34.0678 40.3077Z" fill="#FED233"/>
<path d="M34.0678 54.5749H13.0809C12.4325 54.5749 11.9067 55.1626 11.9067 55.8878C11.9067 56.6131 12.4325 57.2007 13.0809 57.2007H34.0678C34.7163 57.2007 35.242 56.6131 35.242 55.8878C35.242 55.1626 34.7163 54.5749 34.0678 54.5749Z" fill="#FED233"/>
<path d="M34.0678 61.7086H13.0809C12.4325 61.7086 11.9067 62.2963 11.9067 63.0215C11.9067 63.7467 12.4325 64.3344 13.0809 64.3344H34.0678C34.7163 64.3344 35.242 63.7467 35.242 63.0215C35.242 62.2963 34.7163 61.7086 34.0678 61.7086Z" fill="#FED233"/>
<path d="M43.7127 0.519043H5.85646C3.12557 0.519043 0.903808 3.00317 0.903808 6.05656V84.6069C0.903808 87.6601 3.12557 90.1444 5.85646 90.1444H22.0445C22.693 90.1444 23.2188 89.5568 23.2188 88.8315C23.2188 88.1063 22.693 87.5187 22.0444 87.5187H5.85646C4.42048 87.5187 3.25238 86.2126 3.25238 84.6071V6.05656C3.25238 4.45101 4.42048 3.14496 5.85646 3.14496H43.7127C45.1487 3.14496 46.3168 4.45101 46.3168 6.05656V16.5483C46.3168 17.2736 46.8426 17.8612 47.491 17.8612C48.1395 17.8612 48.6652 17.2736 48.6652 16.5483V6.05656C48.6652 3.00317 46.4435 0.519043 43.7127 0.519043Z" fill="#FED233"/>
</svg>
