<svg width="74" height="84" viewBox="0 0 74 84" fill="none" xmlns="http://www.w3.org/2000/svg">
<path d="M72.5217 0.317261H1.51425C0.717268 0.317261 0.0709681 1.04432 0.0709681 1.94126V62.6905C0.0709681 63.5873 0.717268 64.3145 1.51425 64.3145H4.11662C3.36352 66.0385 2.95204 67.9622 2.95204 69.9619V74.5296C2.95204 74.5958 2.95666 74.6607 2.96344 74.7248C1.1924 76.4535 0.0690918 79.0009 0.0690918 81.8397C0.0690918 82.7364 0.715392 83.4637 1.51237 83.4637H22.3932H33.9915H45.5555H51.6428C52.4398 83.4637 53.0861 82.7364 53.0861 81.8397V75.3336C53.0861 74.4369 52.4398 73.7096 51.6428 73.7096H45.3383V69.9619C45.3383 67.962 44.9268 66.0385 44.1737 64.3145H72.5217C73.3187 64.3145 73.965 63.5873 73.965 62.6905V1.94109C73.965 1.04416 73.3187 0.317261 72.5217 0.317261ZM50.1995 76.9576V80.2158H46.8537C46.6361 79.0125 46.1811 77.9051 45.547 76.9576H50.1995ZM2.95753 61.0665V52.2836H8.69961C8.40966 54.4687 8.25898 56.6756 8.25898 58.8793V59.1429C7.48033 59.6939 6.77356 60.3412 6.14775 61.0673C6.1427 61.0673 6.13765 61.0665 6.1326 61.0665H2.95753ZM8.25898 63.2831V72.4251C7.41581 72.4454 6.6031 72.606 5.83845 72.8882V69.9621C5.83845 67.418 6.72809 65.0373 8.25898 63.2831ZM32.6931 80.2157H22.3932H3.14818C3.78323 77.5976 5.91553 75.6677 8.44069 75.6677C9.21154 75.6677 9.95815 75.8455 10.6602 76.196C11.0331 76.3826 11.459 76.3822 11.832 76.1956C12.2049 76.0092 12.4902 75.6536 12.6172 75.2172C14.3951 69.108 19.4305 65.0034 25.1474 65.0034C30.2221 65.0034 34.7618 68.1916 36.9949 73.3234C37.0375 73.4214 37.0882 73.5122 37.1448 73.5956V74.2694C34.8917 75.2633 33.1856 77.4934 32.6931 80.2157ZM36.9615 40.2329H36.4236C36.3137 39.9619 36.2045 39.6907 36.0897 39.4222C35.5214 38.0919 34.8892 36.7945 34.2047 35.5321L36.9613 32.4301V40.2329H36.9615ZM37.1448 58.8834V60.0786V67.8066C36.1617 66.566 35.0269 65.477 33.7676 64.5747C31.1933 62.7301 28.2126 61.7553 25.1474 61.7553C19.251 61.7553 13.9501 65.3388 11.1452 70.9532V60.0786V58.8793C11.1452 46.591 15.8678 35.1115 24.143 27.1778C32.4206 35.1115 37.1448 46.5928 37.1448 58.8834ZM35.6816 80.2157C36.2776 78.3195 37.8868 76.9575 39.7736 76.9575C41.6605 76.9575 43.2695 78.3195 43.8655 80.2157H35.6816ZM45.6184 43.4808C45.6194 43.4808 45.6203 43.4809 45.6211 43.4809C45.622 43.4809 45.623 43.4808 45.6239 43.4808H60.0506C60.0516 43.4808 60.0525 43.4809 60.0534 43.4809C60.0542 43.4809 60.0552 43.4808 60.0561 43.4808H71.0781V49.0358H39.0523C38.6758 47.151 38.1903 45.2944 37.6037 43.4808H45.6184ZM39.8482 40.2329V29.1823L44.1779 24.3105V40.2329H39.8482ZM47.0644 40.2329V21.8701L51.3941 26.7419V40.2329H47.0644ZM54.2805 40.2329V26.1016L58.6102 21.2298V40.2329H54.2805ZM40.0313 73.7098V71.246V63.2829C40.1523 63.4215 40.2677 63.5654 40.3804 63.7115C40.3882 63.7224 40.3965 63.7328 40.4044 63.7433C41.7047 65.4432 42.4518 67.6331 42.4518 69.9619V73.7096H40.0313V73.7098ZM42.1417 61.0665C41.5162 60.3407 40.8095 59.6936 40.0312 59.1429V58.8834C40.0312 56.6782 39.8804 54.47 39.59 52.2836H71.0784V61.0665H42.1417ZM71.0784 40.2329H68.7129V28.4929C68.7129 27.596 68.0666 26.8689 67.2696 26.8689C66.4726 26.8689 65.8263 27.596 65.8263 28.4929V40.2329H61.4966V18.3704C61.4966 18.2502 61.4842 18.1335 61.4621 18.0208L65.8263 13.1101V15.0482C65.8263 15.9451 66.4726 16.6722 67.2696 16.6722C68.0666 16.6722 68.7129 15.9451 68.7129 15.0482V9.18947C68.7129 8.29254 68.0666 7.56547 67.2696 7.56547H62.063C61.266 7.56547 60.6197 8.29254 60.6197 9.18947C60.6197 10.0864 61.266 10.8135 62.063 10.8135H63.7852L52.5526 23.4525L47.7262 18.0214C47.1624 17.3872 46.2488 17.3872 45.6849 18.0214L32.5804 32.7668C30.4448 29.4097 27.9019 26.3759 25.044 23.8043C24.5169 23.3299 23.768 23.3299 23.2409 23.8044C18.5947 27.9867 14.7764 33.3871 12.1987 39.4216C10.8925 42.4796 9.8997 45.7162 9.23694 49.036H2.95753V3.56525H71.0784V40.2329Z" fill="#FED233"/>
<path d="M24.1452 40.2329C19.5296 40.2329 15.7743 44.4582 15.7743 49.6519C15.7743 54.8454 19.5294 59.0708 24.1452 59.0708C28.7608 59.0708 32.5159 54.8454 32.5159 49.6519C32.5159 44.4584 28.7608 40.2329 24.1452 40.2329ZM24.1452 55.8229C21.1211 55.8229 18.6609 53.0545 18.6609 49.6519C18.6609 46.2493 21.1212 43.4807 24.1452 43.4807C27.1691 43.4807 29.6295 46.2493 29.6295 49.6519C29.6295 53.0545 27.1691 55.8229 24.1452 55.8229Z" fill="#FED233"/>
<path d="M20.6744 15.0125H7.39665C6.59967 15.0125 5.95337 15.7395 5.95337 16.6364C5.95337 17.5334 6.59967 18.2604 7.39665 18.2604H20.6745C21.4715 18.2604 22.1178 17.5334 22.1178 16.6364C22.1177 15.7395 21.4714 15.0125 20.6744 15.0125Z" fill="#FED233"/>
<path d="M19.5345 21.9838C19.2662 21.6817 18.8938 21.5079 18.5142 21.5079C18.1346 21.5079 17.7623 21.6817 17.4938 21.9838C17.2254 22.2858 17.0709 22.7048 17.0709 23.1319C17.0709 23.559 17.2252 23.978 17.4938 24.2801C17.7623 24.5822 18.1346 24.7559 18.5142 24.7559C18.8938 24.7559 19.2662 24.5822 19.5345 24.2801C19.8043 23.978 19.9575 23.559 19.9575 23.1319C19.9575 22.7048 19.8043 22.2858 19.5345 21.9838Z" fill="#FED233"/>
<path d="M12.2511 21.5078H7.39665C6.59967 21.5078 5.95337 22.2349 5.95337 23.1318C5.95337 24.0287 6.59967 24.7558 7.39665 24.7558H12.2511C13.0481 24.7558 13.6944 24.0287 13.6944 23.1318C13.6944 22.2349 13.0481 21.5078 12.2511 21.5078Z" fill="#FED233"/>
<path d="M15.3826 8.5166H7.39665C6.59967 8.5166 5.95337 9.24366 5.95337 10.1406C5.95337 11.0375 6.59967 11.7646 7.39665 11.7646H15.3827C16.1797 11.7646 16.826 11.0375 16.826 10.1406C16.826 9.24366 16.1796 8.5166 15.3826 8.5166Z" fill="#FED233"/>
<path d="M68.29 21.9838C68.0214 21.6817 67.6493 21.5079 67.2696 21.5079C66.89 21.5079 66.5176 21.6817 66.2493 21.9838C65.9809 22.2858 65.8263 22.7048 65.8263 23.1319C65.8263 23.559 65.9807 23.978 66.2493 24.2801C66.5176 24.5822 66.89 24.7559 67.2696 24.7559C67.6493 24.7559 68.0215 24.5822 68.29 24.2801C68.5584 23.978 68.7128 23.559 68.7128 23.1319C68.7128 22.7048 68.5586 22.2858 68.29 21.9838Z" fill="#FED233"/>
</svg>
