<svg width="283" height="199" viewBox="0 0 283 199" fill="none" xmlns="http://www.w3.org/2000/svg">
<path d="M75.885 79.4964V80.4964H76.885H95.5029H96.5029V79.4964V58.8999H104.716C113.245 58.8999 120.725 56.4999 126.087 51.7221C131.464 46.9298 134.603 39.8391 134.603 30.6883C134.603 21.9894 131.789 15.0115 126.695 10.2131C121.608 5.42231 114.358 2.90873 105.676 2.90873H76.885H75.885V3.90873V79.4964ZM140.458 79.4964V80.4964H141.458H160.076H161.076V79.4964V57.6041H167.662L180.904 80.0052L181.194 80.4964H181.765H203.262H205.04L204.116 78.9767L188.653 53.5554C196.796 49.2665 202.054 41.4085 202.054 29.9325C202.054 22.0805 199.985 15.9936 195.852 11.3431C191.101 5.99736 183.691 2.90873 173.223 2.90873H141.458H140.458V3.90873V79.4964ZM96.5029 40.4866V22.5098H104.236C107.434 22.5098 109.851 23.332 111.458 24.7885C113.05 26.2312 113.985 28.4187 113.985 31.4442C113.985 34.2968 113.056 36.5272 111.453 38.048C109.844 39.5744 107.449 40.4866 104.332 40.4866H96.5029ZM161.076 39.1908V23.0498H172.264C175.236 23.0498 177.49 23.771 178.989 25.0616C180.463 26.3317 181.34 28.2698 181.34 31.0123C181.34 33.6551 180.505 35.6614 179.045 37.0144C177.576 38.3764 175.351 39.1908 172.36 39.1908H161.076ZM244.216 82.0081C265.584 82.0081 281.492 63.8691 281.492 41.7025C281.492 19.3235 265.779 1.39697 244.408 1.39697C223.041 1.39697 207.132 19.5359 207.132 41.7025C207.132 64.0815 222.845 82.0081 244.216 82.0081ZM244.408 61.1112C234.976 61.1112 228.23 52.2655 228.23 41.7025C228.23 30.9148 234.791 22.2939 244.216 22.2939C253.748 22.2939 260.491 31.1436 260.491 41.7025C260.491 52.4862 253.933 61.1112 244.408 61.1112Z" stroke="#FED233" stroke-width="2"/>
<path d="M67.747 180.03L68.2356 179.272L67.5319 178.708L53.5204 167.477L52.7052 166.824L52.0881 167.667C50.099 170.385 48.1419 172.57 45.8747 174.08C43.6307 175.575 41.0411 176.436 37.732 176.436C29.0967 176.436 22.7052 168.275 22.7052 157.244C22.7052 146.316 29.0996 138.051 37.732 138.051C43.723 138.051 47.9665 141.131 51.6962 146.377L52.3359 147.277L53.1682 146.551L66.7958 134.673L67.4462 134.106L66.9807 133.38C60.8917 123.877 52.0639 116.938 37.9239 116.938C16.922 116.938 1.51147 134.773 1.51147 157.244C1.51147 180.475 17.311 197.549 37.1562 197.549C44.7672 197.549 50.8102 195.695 55.77 192.548C60.7185 189.408 64.5319 185.018 67.747 180.03ZM151.798 195.037V196.037H152.798H178.325C190.649 196.037 200.495 191.904 207.259 184.907C214.017 177.916 217.617 168.15 217.617 157.028C217.617 145.802 214.068 136.14 207.376 129.28C200.679 122.415 190.928 118.45 178.709 118.45H152.798H151.798V119.45V195.037ZM225.18 195.037V196.037H226.18H280.69H281.69V195.037V177.22V176.22H280.69H245.606V166.234H276.851H277.851V165.234V148.713V147.713H276.851H245.606V138.267H280.21H281.21V137.267V119.45V118.45H280.21H226.18H225.18V119.45V195.037ZM106.823 197.549C128.191 197.549 144.1 179.41 144.1 157.244C144.1 134.865 128.386 116.938 107.015 116.938C85.6479 116.938 69.7392 135.077 69.7392 157.244C69.7392 179.623 85.4527 197.549 106.823 197.549ZM107.015 176.652C97.583 176.652 90.837 167.806 90.837 157.244C90.837 146.456 97.3982 137.835 106.823 137.835C116.355 137.835 123.098 146.685 123.098 157.244C123.098 168.027 116.54 176.652 107.015 176.652ZM172.416 175.464V138.807H178.997C184.342 138.807 188.698 140.539 191.717 143.634C194.738 146.731 196.519 151.294 196.519 157.136C196.519 163.145 194.735 167.702 191.721 170.754C188.708 173.806 184.355 175.464 178.997 175.464H172.416Z" stroke="white" stroke-width="2"/>
</svg>
