<svg width="21" height="33" viewBox="0 0 21 33" fill="none" xmlns="http://www.w3.org/2000/svg">
<path d="M10.376 0.186279C4.81962 0.186279 0.299316 5.38335 0.299316 11.7711V20.9965C0.299316 27.3842 4.81962 32.581 10.376 32.581C15.9321 32.581 20.4527 27.4 20.4527 21.0319V11.7711C20.4527 5.38335 15.9321 0.186279 10.376 0.186279ZM18.5574 21.0319C18.5574 26.2172 14.8874 30.4357 10.376 30.4357C5.86489 30.4357 2.19466 26.2011 2.19466 20.9961V11.7711C2.19466 6.56614 5.86489 2.33161 10.376 2.33161C14.8875 2.33161 18.5574 6.56614 18.5574 11.7711V21.0319Z" fill="white"/>
<path d="M10.3761 9.0537C9.85266 9.0537 9.42841 9.53393 9.42841 10.1264V13.8808C9.42841 14.4732 9.85266 14.9535 10.3761 14.9535C10.8995 14.9535 11.3238 14.4732 11.3238 13.8808V10.1264C11.3238 9.53393 10.8995 9.0537 10.3761 9.0537Z" fill="white"/>
</svg>
